HIERARCHY
ROOT Hips
{
	OFFSET -0.001795 -0.223333 0.028219
	CHANNELS 6 Xposition Yposition Zposition Zrotation Yrotation Xrotation 
	JOINT LeftUpLeg
	{
		OFFSET 0.069520 -0.091406 -0.006815
		CHANNELS 3 Zrotation Yrotation Xrotation
		JOINT LeftLeg
		{
			OFFSET 0.034277 -0.375199 -0.004496
			CHANNELS 3 Zrotation Yrotation Xrotation
			JOINT LeftFoot
			{
				OFFSET -0.013596 -0.397961 -0.043693
				CHANNELS 3 Zrotation Yrotation Xrotation
				JOINT LeftToe
				{
					OFFSET 0.026358 -0.055791 0.119288
					CHANNELS 3 Zrotation Yrotation Xrotation
					End Site
					{
						OFFSET 0.000000 0.000000 0.000000
					}
				}
			}
		}
	}
	JOINT RightUpLeg
	{
		OFFSET -0.067670 -0.090522 -0.004320
		CHANNELS 3 Zrotation Yrotation Xrotation
		JOINT RightLeg
		{
			OFFSET -0.038290 -0.382569 -0.008850
			CHANNELS 3 Zrotation Yrotation Xrotation
			JOINT RightFoot
			{
				OFFSET 0.015774 -0.398415 -0.042312
				CHANNELS 3 Zrotation Yrotation Xrotation
				JOINT RightToe
				{
					OFFSET -0.025372 -0.048144 0.123348
					CHANNELS 3 Zrotation Yrotation Xrotation
					End Site
					{
						OFFSET 0.000000 0.000000 0.000000
					}
				}
			}
		}
	}
	JOINT Spine
	{
		OFFSET -0.002533 0.108963 -0.026696
		CHANNELS 3 Zrotation Yrotation Xrotation
		JOINT Spine1
		{
			OFFSET 0.005487 0.135180 0.001092
			CHANNELS 3 Zrotation Yrotation Xrotation
			JOINT Spine2
			{
				OFFSET 0.001457 0.052922 0.025425
				CHANNELS 3 Zrotation Yrotation Xrotation
				JOINT Neck
				{
					OFFSET -0.002778 0.213870 -0.042857
					CHANNELS 3 Zrotation Yrotation Xrotation
					JOINT Head
					{
						OFFSET 0.005152 0.064970 0.051349
						CHANNELS 3 Zrotation Yrotation Xrotation
						End Site
						{
							OFFSET 0.000000 0.000000 0.000000
						}
					}
				}
				JOINT LeftShoulder
				{
					OFFSET 0.078845 0.121749 -0.034090
					CHANNELS 3 Zrotation Yrotation Xrotation
					JOINT LeftArm
					{
						OFFSET 0.090977 0.030469 -0.008868
						CHANNELS 3 Zrotation Yrotation Xrotation
						JOINT LeftForeArm
						{
							OFFSET 0.259612 -0.012772 -0.027456
							CHANNELS 3 Zrotation Yrotation Xrotation
							JOINT LeftHand
							{
								OFFSET 0.249234 0.008986 -0.001171
								CHANNELS 3 Zrotation Yrotation Xrotation
								End Site
								{
									OFFSET 0.000000 0.000000 0.000000
								}
							}
						}
					}
				}
				JOINT RightShoulder
				{
					OFFSET -0.081759 0.118833 -0.038615
					CHANNELS 3 Zrotation Yrotation Xrotation
					JOINT RightArm
					{
						OFFSET -0.096012 0.032551 -0.009143
						CHANNELS 3 Zrotation Yrotation Xrotation
						JOINT RightForeArm
						{
							OFFSET -0.253742 -0.013329 -0.021401
							CHANNELS 3 Zrotation Yrotation Xrotation
							JOINT RightHand
							{
								OFFSET -0.255298 0.007772 -0.005559
								CHANNELS 3 Zrotation Yrotation Xrotation
								End Site
								{
									OFFSET 0.000000 0.000000 0.000000
								}
							}
						}
					}
				}
			}
		}
	}
}
MOTION
Frames: 12
Frame Time: 0.050000
0.000000 0.951053 0.000000 -0.232862 -2.578532 2.328760 3.297702 0.148733 2.920669 -2.369396 0.373751 -7.272003 5.067135 12.670056 12.824286 0.000000 0.000000 0.000000 -2.789429 -0.003655 1.336180 1.716652 -0.182006 -0.450293 -5.960169 -16.079248 10.137248 0.000000 0.000000 0.000000 0.430793 -0.082665 1.689474 3.649980 -0.391706 -22.656893 -0.787720 1.118034 27.902097 1.047335 0.750314 -23.920556 0.000000 0.000000 0.000000 -10.628969 4.123915 -2.321440 -29.509899 -10.640578 -2.774160 11.917190 -10.958670 -0.556020 0.000000 0.000000 0.000000 2.103094 0.846973 0.216384 31.007273 11.246560 -2.057867 -14.648784 11.926565 -0.779016 0.000000 0.000000 0.000000 
-0.000043 0.950171 0.000580 -0.583378 -2.839871 2.497916 3.737160 0.159250 3.334243 -2.131227 0.382479 -8.303801 4.856533 12.304545 12.748775 0.000000 0.000000 0.000000 -2.540164 -0.008226 1.272362 1.643240 -0.178649 -0.630112 -6.378672 -16.903935 10.506259 0.000000 0.000000 0.000000 0.536607 -0.101138 2.009209 3.839082 -0.350031 -24.116664 -0.495756 1.526428 28.769854 0.152943 1.448461 -26.126908 0.000000 0.000000 0.000000 -12.427612 4.864112 -2.859113 -34.225587 -11.301578 -3.009788 11.077408 -11.258589 -0.466508 0.000000 0.000000 0.000000 4.702752 1.028750 0.206000 35.463971 10.241787 -2.598258 -15.211007 13.905458 -0.968145 0.000000 0.000000 0.000000 
-0.000212 0.949264 0.001406 -0.251552 -3.297980 2.445619 3.989320 0.145573 3.167599 -2.605660 0.382645 -6.641758 5.005559 12.383389 11.834649 0.000000 0.000000 0.000000 -3.445659 0.050272 1.092147 2.498714 -0.252126 -0.461583 -6.232933 -16.592170 9.864157 0.000000 0.000000 0.000000 0.701645 -0.113611 2.162843 3.441654 -0.258479 -24.180493 -0.550876 1.989174 29.074131 0.972465 0.998064 -26.061584 0.000000 0.000000 0.000000 -14.702365 4.777503 -3.080561 -37.945739 -9.439972 -3.755064 8.853157 -14.088004 -0.345962 0.000000 0.000000 0.000000 7.617929 1.131224 0.144428 39.906764 9.433723 -3.045496 -14.328206 16.288233 -1.053247 0.000000 0.000000 0.000000 
-0.000693 0.948536 0.002624 -0.216835 -3.387916 2.102428 4.467014 0.158720 3.613272 -3.290650 0.421147 -6.272378 5.108415 12.449004 11.069147 0.000000 0.000000 0.000000 -3.350435 0.009390 1.604113 2.404296 -0.242568 -0.427472 -6.547791 -17.233422 10.464464 0.000000 0.000000 0.000000 -0.019624 -0.089579 2.202591 4.119053 -0.394938 -24.555533 -0.650104 1.336903 29.747046 -0.157762 1.530304 -26.094676 0.000000 0.000000 0.000000 -17.237285 5.898699 -3.796954 -42.861863 -8.532325 -4.516333 8.110549 -15.435687 -0.215967 0.000000 0.000000 0.000000 8.758032 2.159526 0.474231 44.679846 8.280072 -3.736159 -13.566208 18.167154 -1.104742 0.000000 0.000000 0.000000 
-0.001498 0.948369 0.003861 -0.049899 -2.716427 1.963829 4.678300 0.154678 3.830081 -3.746643 0.443031 -6.178752 4.711228 11.886429 11.290867 0.000000 0.000000 0.000000 -3.479775 -0.001588 1.763032 1.887723 -0.196597 -0.392633 -6.796973 -17.696562 11.016604 0.000000 0.000000 0.000000 -0.313452 -0.090693 2.506446 4.447801 -0.447292 -24.781997 -0.892315 1.174807 29.280242 -0.095712 1.513683 -25.527989 0.000000 0.000000 0.000000 -18.111426 5.580573 -3.803727 -47.036892 -6.503410 -5.508346 5.866681 -18.113010 0.085151 0.000000 0.000000 0.000000 9.772290 1.798055 0.297109 49.610531 6.006231 -4.851259 -12.066136 21.064764 -1.034276 0.000000 0.000000 0.000000 
-0.002545 0.948065 0.004716 -0.050438 -1.932057 1.918373 4.709008 0.127495 3.550911 -3.489000 0.417708 -5.797889 4.413771 11.339623 10.506304 0.000000 0.000000 0.000000 -3.447774 -0.027300 2.009964 1.864856 -0.197675 -0.394567 -6.854968 -17.746756 10.925306 0.000000 0.000000 0.000000 -0.458530 -0.087542 2.563534 4.425069 -0.427295 -24.858455 -0.850794 0.147771 29.337764 -0.614782 1.740827 -25.934554 0.000000 0.000000 0.000000 -19.034729 6.136006 -4.109776 -50.101683 -6.083164 -5.968098 3.903582 -19.052662 0.442613 0.000000 0.000000 0.000000 10.140643 2.124054 0.361106 53.387042 5.033148 -5.565192 -9.706184 22.381494 -0.708765 0.000000 0.000000 0.000000 
-0.003814 0.947904 0.004972 -0.037049 -1.432696 1.745951 4.799088 0.125207 3.683584 -3.565470 0.417429 -5.698103 4.250041 11.100182 10.459988 0.000000 0.000000 0.000000 -3.294211 -0.054472 2.206208 1.789048 -0.188956 -0.249709 -7.005898 -18.003385 11.087391 0.000000 0.000000 0.000000 -0.496298 -0.093160 2.750068 4.363143 -0.413501 -24.761927 -0.820699 -0.292474 29.208791 -0.722932 1.789922 -26.172326 0.000000 0.000000 0.000000 -20.113037 5.595819 -3.907552 -52.237959 -5.676533 -6.339372 1.870154 -19.463134 0.794020 0.000000 0.000000 0.000000 10.987516 2.423010 0.442828 56.131878 3.440833 -6.519926 -7.799338 23.427196 -0.388374 0.000000 0.000000 0.000000 
-0.005005 0.948006 0.004851 -0.137999 -1.127103 1.702965 4.921180 0.096466 3.301599 -3.413806 0.401782 -5.009583 4.433634 11.370857 10.139053 0.000000 0.000000 0.000000 -2.960867 -0.054027 1.931346 1.868576 -0.186350 0.253623 -7.312154 -18.535773 11.021327 0.000000 0.000000 0.000000 -0.444758 -0.095430 2.751668 4.403196 -0.416438 -24.810838 -0.997272 -0.450724 29.605668 -0.594770 1.707063 -25.953373 0.000000 0.000000 0.000000 -21.037084 5.092118 -3.719413 -53.666274 -6.141983 -6.321684 1.359891 -19.184629 0.872342 0.000000 0.000000 0.000000 11.675006 2.511616 0.469512 58.357231 2.885763 -7.047157 -5.568419 24.169397 0.043273 0.000000 0.000000 0.000000 
-0.005915 0.948258 0.004579 -0.233409 -0.883042 1.689584 5.033673 0.070618 2.939067 -3.506024 0.404608 -4.627196 4.329353 11.193707 10.004072 0.000000 0.000000 0.000000 -2.597294 -0.063469 1.807093 1.871864 -0.181826 0.509457 -7.476115 -18.817376 10.910705 0.000000 0.000000 0.000000 -0.454293 -0.096277 2.780371 4.295201 -0.416591 -24.375556 -0.931724 -0.650509 29.157606 -0.930291 1.895761 -25.874182 0.000000 0.000000 0.000000 -21.733935 4.647695 -3.542128 -54.540536 -6.746635 -6.096216 1.190977 -19.162794 0.900265 0.000000 0.000000 0.000000 12.283705 2.703021 0.515770 59.789504 1.952552 -7.601597 -4.016950 24.726275 0.347408 0.000000 0.000000 0.000000 
-0.006531 0.948540 0.004310 -0.335193 -0.817489 1.648536 4.989379 0.064142 2.786063 -3.447996 0.399089 -4.476953 4.569987 11.573119 9.869632 0.000000 0.000000 0.000000 -2.366189 -0.066392 1.703106 2.000099 -0.190502 0.755724 -7.553797 -18.948994 10.724645 0.000000 0.000000 0.000000 -0.335536 -0.099769 2.748793 4.247918 -0.406952 -24.342171 -1.049408 -0.434359 29.283383 -0.819289 1.846869 -25.184303 0.000000 0.000000 0.000000 -22.304957 3.945509 -3.256329 -55.064511 -7.259502 -5.918737 1.191339 -19.126550 0.891920 0.000000 0.000000 0.000000 12.578211 2.724963 0.561065 60.878977 1.581932 -7.907296 -2.526870 25.600469 0.691170 0.000000 0.000000 0.000000 
-0.006839 0.948459 0.004134 -0.301065 -0.627917 1.473567 5.119095 0.049555 2.591378 -3.688119 0.414141 -3.969863 4.623069 11.666429 9.810696 0.000000 0.000000 0.000000 -2.194969 -0.088624 1.862681 1.911801 -0.183171 0.692774 -7.676687 -19.166063 10.906049 0.000000 0.000000 0.000000 -0.457779 -0.105452 3.024332 4.111630 -0.371683 -24.353371 -1.116533 -0.533608 29.040321 -1.080156 2.000895 -25.026639 0.000000 0.000000 0.000000 -22.842792 3.710067 -3.185882 -55.199868 -7.650950 -5.741947 1.349964 -19.833516 0.906845 0.000000 0.000000 0.000000 12.797460 2.887723 0.629277 61.087078 1.012970 -8.194010 -1.169610 26.246742 0.994445 0.000000 0.000000 0.000000 
-0.007032 0.948567 0.004037 -0.313995 -0.680028 1.254533 4.992108 0.061058 2.667285 -3.703622 0.415527 -3.770568 4.762536 11.894809 9.815003 0.000000 0.000000 0.000000 -2.104060 -0.107973 2.042244 2.072093 -0.200175 0.718918 -7.745640 -19.292370 10.872535 0.000000 0.000000 0.000000 -0.643424 -0.103789 3.174744 4.217546 -0.401898 -24.311665 -1.180746 -0.427945 29.070488 -1.145786 2.031719 -24.451426 0.000000 0.000000 0.000000 -23.304963 3.555302 -3.160643 -55.317575 -7.856409 -5.665153 1.082499 -20.368997 0.981869 0.000000 0.000000 0.000000 13.118139 3.146428 0.753207 61.131173 0.814613 -8.299785 -0.684059 27.076045 1.144706 0.000000 0.000000 0.000000 
